<svg xmlns="http://www.w3.org/2000/svg" xmlns:xlink="http://www.w3.org/1999/xlink" width="40" height="40" viewBox="0 0 40 40">
  <defs>
    <clipPath id="clip-path">
      <rect id="長方形_1098" data-name="長方形 1098" width="40" height="40" transform="translate(12136 -1404)" fill="#fff" opacity="0.369"/>
    </clipPath>
  </defs>
  <g id="マスクグループ_53" data-name="マスクグループ 53" transform="translate(-12136 1404)" clip-path="url(#clip-path)">
    <path id="instagram" d="M25.7,27.07a4.359,4.359,0,1,1-4.427,4.358A4.393,4.393,0,0,1,25.7,27.07Zm0-1.743a6.1,6.1,0,1,0,6.2,6.1A6.15,6.15,0,0,0,25.7,25.328Zm6.389-1.467A1.743,1.743,0,1,0,33.86,25.6,1.743,1.743,0,0,0,32.089,23.861Zm-10.715-1.9h8.652a5.057,5.057,0,0,1,5.1,5.017v8.9a5.057,5.057,0,0,1-5.1,5.017H21.374a5.057,5.057,0,0,1-5.1-5.017v-8.9A5.057,5.057,0,0,1,21.374,21.964Zm-.816-1.735A6.011,6.011,0,0,0,14.5,26.192V36.665a6.011,6.011,0,0,0,6.058,5.964H30.842A6.011,6.011,0,0,0,36.9,36.665V26.192a6.011,6.011,0,0,0-6.058-5.964Zm5.142-6.3a17.5,17.5,0,1,1-17.5,17.5A17.5,17.5,0,0,1,25.7,13.929Z" transform="translate(12130.8 -1414.929)" fill="#fff" fill-rule="evenodd"/>
  </g>
</svg>
