<svg xmlns="http://www.w3.org/2000/svg" xmlns:xlink="http://www.w3.org/1999/xlink" width="40" height="40" viewBox="0 0 40 40">
  <defs>
    <clipPath id="clip-path">
      <rect id="長方形_1097" data-name="長方形 1097" width="40" height="40" transform="translate(12076 -1404)" fill="#fff" opacity="0.369"/>
    </clipPath>
  </defs>
  <g id="マスクグループ_54" data-name="マスクグループ 54" transform="translate(-12076 1404)" clip-path="url(#clip-path)">
    <path id="twitter" d="M25.7,13.929a17.5,17.5,0,1,0,17.5,17.5,17.427,17.427,0,0,0-17.5-17.5Zm13.287,16.69c-.648.972-1.782,1.3-3.241,1.3a7.686,7.686,0,0,1-1.62,3.565,14.473,14.473,0,0,1-6.968,4.7H27a15.556,15.556,0,0,1-8.588-.324,12.659,12.659,0,0,1-6-4.537,8.078,8.078,0,0,0,4.213,1.945V37.1a6.661,6.661,0,0,0,5.509-1.945v-.162a1.682,1.682,0,0,1-1.782-.648.721.721,0,0,1,.324-.972,1.264,1.264,0,0,1,.648-.648A3.159,3.159,0,0,1,18.084,31.1a2.436,2.436,0,0,1,1.782-.648C18.084,29.97,17.112,29,16.95,27.7c.486,0,.972-.162,1.458-.162A3.927,3.927,0,0,1,16.3,24.3a19.007,19.007,0,0,1,3.889,1.458,13.748,13.748,0,0,1,3.079,1.62,5.6,5.6,0,0,1,1.944,1.458v-.162a14.549,14.549,0,0,1,1.944-3.889,5.689,5.689,0,0,1,1.3-1.62c.162-.324.486-.486.81-.81.162.162,0,.324-.324.81a3.483,3.483,0,0,1,2.106-.972c.162.162-.162.486-.81.81a5.82,5.82,0,0,1,1.782-.324c.162,0,.324.162.162.324-.162.324-.81.648-2.106.81v.162a4.873,4.873,0,0,1,3.565,1.3A7.915,7.915,0,0,1,35.746,29a4.991,4.991,0,0,0,3.079,0c-.324.81-1.134,1.134-2.755,1.3v.162a6.25,6.25,0,0,0,2.917.162Z" transform="translate(12070.8 -1414.929)" fill="#fff" fill-rule="evenodd"/>
  </g>
</svg>
